<svg width="249" height="230" viewBox="0 0 249 230" fill="none" xmlns="http://www.w3.org/2000/svg">
<path d="M169.597 156.3C169.713 154.548 169.649 152.788 169.407 151.049C169.139 149.297 168.722 147.57 168.16 145.89C167.049 142.51 165.39 139.339 163.25 136.508C158.918 130.857 153.01 126.646 146.286 124.415C142.915 123.302 139.431 122.572 135.899 122.239L133.234 122.037C132.346 121.977 131.448 122.037 130.56 122.037C128.774 121.967 126.988 122.138 125.201 122.229C118.03 122.882 110.956 124.359 104.117 126.632C97.2255 128.874 90.5025 131.612 83.9995 134.825C77.4535 137.979 70.9673 141.406 64.561 144.902C51.7205 151.828 39.2529 159.437 27.2108 167.697C26.9893 167.851 26.74 167.96 26.4769 168.017C26.2139 168.074 25.9424 168.078 25.6778 168.028C25.4133 167.979 25.1609 167.878 24.9351 167.73C24.7093 167.583 24.5145 167.392 24.3619 167.168C24.2092 166.944 24.1017 166.693 24.0454 166.427C23.9891 166.161 23.9851 165.887 24.0338 165.62C24.0824 165.353 24.1827 165.098 24.3289 164.87C24.4751 164.642 24.6643 164.445 24.8857 164.291V164.291C37.1212 156.073 49.7786 148.515 62.8048 141.647C69.3109 138.211 75.7771 134.855 82.5027 131.711C89.1726 128.499 96.0623 125.775 103.119 123.559C110.209 121.282 117.535 119.831 124.952 119.236C126.818 119.165 128.674 119.004 130.55 119.085C131.488 119.085 132.416 119.085 133.354 119.165L136.158 119.397C139.894 119.796 143.575 120.611 147.135 121.826C150.714 123.087 154.1 124.851 157.193 127.066C160.287 129.295 163.017 131.998 165.286 135.077C167.557 138.152 169.31 141.584 170.475 145.235C171.067 147.061 171.501 148.936 171.772 150.838C172.018 152.763 172.065 154.708 171.912 156.642C171.874 156.946 171.721 157.224 171.486 157.417C171.251 157.61 170.951 157.704 170.649 157.679C170.346 157.655 170.065 157.513 169.864 157.284C169.662 157.055 169.556 156.757 169.567 156.451L169.597 156.3Z" fill="#FFDC4B"/>
<path fill-rule="evenodd" clip-rule="evenodd" d="M103.482 198.947C103.483 198.948 103.484 198.948 102.862 199.9L103.484 198.948C104.012 199.294 104.16 200.002 103.815 200.53C103.471 201.057 102.767 201.206 102.239 200.865C102.237 200.864 102.235 200.863 102.233 200.861L102.858 199.905C102.233 200.861 102.234 200.862 102.235 200.862L102.236 200.863L102.238 200.865L102.231 200.86C102.22 200.854 102.201 200.842 102.171 200.825C102.113 200.791 102.017 200.739 101.886 200.674C101.622 200.544 101.215 200.365 100.672 200.19C99.5891 199.841 97.9634 199.506 95.8595 199.613C91.6739 199.824 85.4363 201.792 77.7027 209.203C77.2471 209.639 76.5238 209.624 76.0872 209.168C75.6506 208.713 75.666 207.989 76.1216 207.553C84.1654 199.844 90.9009 197.575 95.7441 197.33C98.1546 197.208 100.057 197.591 101.374 198.015C102.031 198.227 102.542 198.449 102.896 198.624C103.073 198.711 103.211 198.787 103.309 198.843C103.359 198.871 103.398 198.895 103.427 198.913C103.441 198.922 103.453 198.929 103.463 198.935L103.475 198.943L103.48 198.946L103.482 198.947Z" fill="#FFDC4B"/>
<path d="M8 36C8 36 25.86 61.7879 52.13 80.0041C65.21 89.0623 76.3 92.1648 91.71 95.0379C107.12 97.911 104.71 115.06 94.25 116.825C90.3975 117.085 86.5276 116.863 82.73 116.167C82.73 116.167 92.25 139.78 106.17 156.799C124.63 179.365 166.68 223 248 210.769V223H96.41L69.36 205.043C40.99 223 11.72 171.374 8 161.209V36Z" fill="#FFF79C"/>
<path fill-rule="evenodd" clip-rule="evenodd" d="M171.065 154.018C171.682 154.129 172.093 154.722 171.982 155.343C166.148 188.085 144.85 208.361 123.792 219.358C113.266 224.855 102.77 228.052 94.2346 229.337C89.9688 229.979 86.164 230.148 83.073 229.874C80.0318 229.605 77.4967 228.893 75.9517 227.603C73.2469 225.345 71.8149 222.93 71.2668 220.536C70.7216 218.154 71.0758 215.902 71.7538 213.997C72.4302 212.095 73.4418 210.5 74.2718 209.389C74.6889 208.83 75.0657 208.387 75.341 208.08C75.4788 207.926 75.5916 207.807 75.6719 207.723C75.712 207.682 75.744 207.649 75.767 207.626L75.7945 207.599L75.803 207.591L75.8059 207.588L75.807 207.587C75.8074 207.586 75.8078 207.586 76.5976 208.406L75.8078 207.586C76.2582 207.147 76.9769 207.159 77.4131 207.612C77.8489 208.064 77.8378 208.786 77.3885 209.224C77.3883 209.224 77.3876 209.225 77.3874 209.225L77.371 209.242C77.3564 209.256 77.333 209.28 77.3017 209.313C77.239 209.377 77.1449 209.477 77.0266 209.609C76.7897 209.873 76.4575 210.264 76.0873 210.759C75.3427 211.756 74.4669 213.148 73.8916 214.765C73.3178 216.378 73.0561 218.175 73.4794 220.024C73.8998 221.861 75.0209 223.859 77.4022 225.847C78.4003 226.68 80.3561 227.342 83.272 227.6C86.1381 227.854 89.7566 227.703 93.8984 227.079C102.179 225.833 112.435 222.717 122.746 217.333C143.361 206.567 164.07 186.805 169.747 154.94C169.858 154.32 170.448 153.907 171.065 154.018Z" fill="#FFDC4B"/>
<path d="M145.449 155.914C145.449 155.914 154.739 170.654 157.893 176.642C161.046 182.63 168.611 192.42 174.149 187.76C179.299 183.418 165.028 172.371 165.028 172.371C165.028 172.371 144.281 152.741 147.065 130.675H143.473L145.449 155.914Z" fill="black"/>
<path d="M188 204C190.761 204 193 201.761 193 199C193 196.239 190.761 194 188 194C185.239 194 183 196.239 183 199C183 201.761 185.239 204 188 204Z" fill="black"/>
<path d="M146.75 97.125C149.903 110.348 157.562 116.764 151.744 121.235C151.744 121.235 150.597 123.32 155.906 133.849C158.73 140.985 149.679 144.637 146.625 139.967" fill="black"/>
<path d="M8 63.0647C8 63.0647 20.1249 82.9744 55.1325 115.169C56.3799 116.317 51.8293 118.053 45.5423 114.012C38.6965 109.61 17.6001 91.3175 8 78.6631V63.0647Z" fill="#FFC80E"/>
<path d="M69.3438 205.054C71.5079 203.231 73.2598 200.969 74.4831 198.418L92.25 220.266L69.3438 205.054Z" fill="#FFEB77"/>
<path d="M194.973 223C197.46 207.633 213.951 210.063 213.951 210.063C227.935 186.452 247.973 191.44 247.973 191.44V223H194.973Z" fill="#E5EFF7"/>
<path d="M51.5636 62.962C50.0547 70.0964 47.6753 77.0191 44.4786 83.5752C41.3077 90.1062 37.5509 96.3372 33.2541 102.192C28.9921 108.046 24.3377 113.605 19.3229 118.831C16.8253 121.444 14.258 123.997 11.6011 126.451C10.5563 127.444 9.51145 128.358 8.44671 129.292C6.78492 130.742 5.09329 132.163 3.31209 133.563C3.10105 133.729 2.85939 133.852 2.6009 133.924C2.34241 133.996 2.07217 134.017 1.80559 133.986C1.53901 133.954 1.28132 133.87 1.04723 133.739C0.813142 133.607 0.607241 133.431 0.441282 133.221C0.275324 133.01 0.152558 132.769 0.0799945 132.511C0.00743104 132.253 -0.0135092 131.983 0.0183695 131.717C0.0502481 131.451 0.134321 131.193 0.265789 130.96C0.397256 130.726 0.573544 130.52 0.784585 130.355V130.355C3.3718 128.368 5.90925 126.212 8.38701 123.977C11.1732 121.484 13.8799 118.871 16.487 116.199C21.4376 111.148 26.0388 105.768 30.2589 100.096C34.5175 94.4428 38.2512 88.4144 41.4138 82.0851C44.5577 75.8066 46.9203 69.1677 48.449 62.3163C49.9699 55.4716 50.3565 48.4243 49.5933 41.4548C49.3147 39.7263 49.1057 37.9978 48.7774 36.2792C48.449 34.5606 48.0012 32.8718 47.5335 31.1929C47.0658 29.5141 46.4588 27.8551 45.8618 26.2259C45.5135 25.451 45.205 24.6563 44.8667 23.8815L43.6328 21.6364C39.8618 15.7863 34.6143 11.0307 28.418 7.8479C22.2406 4.57321 15.4289 2.66564 8.44671 2.25503V0C15.8184 0.336621 23.0292 2.26509 29.5822 5.65248C36.2186 8.99883 41.8543 14.0323 45.9215 20.2456L47.2947 22.6794C47.7027 23.5238 48.0609 24.3881 48.449 25.2424C49.0958 26.961 49.6431 28.6895 50.2501 30.4181C50.8571 32.1466 51.1556 33.9546 51.6133 35.7328C52.0711 37.511 52.2203 39.3389 52.5288 41.1369C53.3986 48.4159 53.0725 55.7879 51.5636 62.962V62.962Z" fill="#FFDC4B"/>
<path d="M72.1289 112.107C75.529 113.795 79.0808 115.158 82.737 116.178L87.5071 126.667C87.5071 126.667 77.4679 120.679 72.1289 112.107Z" fill="#FFEB77"/>
<path d="M57.8807 167.471C57.8807 167.471 30.6371 149.328 39.6784 140.106C48.7197 130.885 67.7004 168.349 96.5607 181.443C111.131 188.049 111.909 192.081 109.264 193.249C104.644 195.284 84.346 182.111 57.8807 167.471Z" fill="#FFEB77"/>
<path d="M248.007 188.929V193.061H247.728H247.509C247.239 193.061 246.82 192.961 246.441 192.931C246.061 192.901 245.672 192.861 245.273 192.851C244.485 192.801 243.686 192.851 242.888 192.851C241.299 192.953 239.723 193.197 238.178 193.58C235.123 194.341 232.211 195.591 229.556 197.282C228.245 198.176 226.998 199.16 225.823 200.226C225.216 200.741 224.636 201.287 224.087 201.863L222.49 203.649C221.951 204.246 221.454 204.88 221.003 205.545L219.576 207.501C218.718 208.879 217.92 210.296 217.081 211.673L213.549 213.37C213.148 213.271 212.742 213.201 212.331 213.16C211.882 213.16 211.423 213.06 210.964 213.04C210.039 212.995 209.112 213.015 208.19 213.1C206.392 213.251 204.638 213.738 203.021 214.537C202.621 214.729 202.237 214.952 201.873 215.206L200.805 215.994C200.14 216.594 199.541 217.263 199.019 217.99C198.471 218.759 198.009 219.585 197.642 220.455C197.434 220.898 197.267 221.359 197.143 221.832L196.773 223H193.57C193.565 222.917 193.565 222.834 193.57 222.751L193.84 221.034C193.901 220.449 194.018 219.871 194.189 219.308C194.49 218.133 194.918 216.996 195.466 215.914C196.017 214.798 196.686 213.744 197.462 212.771L198.799 211.423C199.257 210.984 199.751 210.583 200.276 210.226C202.321 208.772 204.624 207.722 207.062 207.132C208.255 206.829 209.469 206.619 210.695 206.503C211.194 206.444 211.693 206.414 212.192 206.394C212.84 205.446 213.489 204.508 214.187 203.589L215.974 201.454C216.554 200.728 217.181 200.042 217.85 199.398L219.846 197.452C220.536 196.822 221.259 196.229 222.011 195.675C223.486 194.517 225.04 193.463 226.662 192.522C229.956 190.706 233.526 189.445 237.23 188.789C239.072 188.468 240.939 188.314 242.808 188.33C243.746 188.33 244.684 188.38 245.622 188.5C246.081 188.5 246.55 188.61 247.029 188.7C247.508 188.789 247.658 188.849 248.007 188.929Z" fill="black"/>
</svg>
