<svg width="240" height="255" viewBox="0 0 240 255" fill="none" xmlns="http://www.w3.org/2000/svg">
<path d="M0 211.974C0 211.974 107.37 189.975 154.92 158.83C202.47 127.685 218.48 119.266 218.15 138.315L240 126.011V164.997C240 164.997 197.86 183.04 186.56 190.662C175.26 198.284 174.56 209.104 185.56 211.974C196.56 214.843 202.18 231.073 172.26 248.011H96.44C96.44 248.011 116.44 235.636 115.95 228.572C115.46 221.509 52.54 248.011 52.54 248.011H0V211.974Z" fill="#FFF79C"/>
<path fill-rule="evenodd" clip-rule="evenodd" d="M129.816 144.56L129.817 144.559L129.827 144.551L129.87 144.515C129.91 144.483 129.971 144.433 130.053 144.369C130.217 144.24 130.464 144.05 130.787 143.815C131.433 143.344 132.384 142.689 133.591 141.966C136.009 140.516 139.435 138.802 143.484 137.722C151.535 135.575 162.07 135.92 172.164 146.009C172.555 146.4 173.188 146.4 173.579 146.01C173.969 145.62 173.97 144.988 173.579 144.598C162.884 133.909 151.568 133.499 142.968 135.793C138.69 136.934 135.089 138.739 132.562 140.253C131.296 141.012 130.295 141.701 129.607 142.202C129.263 142.453 128.997 142.657 128.815 142.8C128.724 142.872 128.654 142.928 128.606 142.968C128.582 142.987 128.563 143.003 128.55 143.013L128.535 143.026L128.53 143.03L128.529 143.031C128.528 143.032 128.528 143.032 129.154 143.775L128.528 143.032C128.105 143.388 128.051 144.018 128.407 144.439C128.763 144.861 129.393 144.915 129.816 144.56C129.816 144.56 129.816 144.56 129.816 144.56Z" fill="#FFDC4B"/>
<path d="M174.71 146.272L174.19 146.562L173.71 146.831C168.36 149.827 141.25 164.585 89.66 187.68C67.94 197.396 7.88 210.007 0 211.645V190.436C5.46 190.067 36.26 187.64 75.19 177.246C117.4 165.983 155.19 135.978 173.7 145.693L174.21 145.973L174.71 146.272Z" fill="#E5EFF7"/>
<path d="M175.59 146.792C175.504 146.945 175.375 147.069 175.22 147.151V147.151C168.29 150.945 161.29 154.48 154.22 157.985C147.15 161.49 140.12 164.925 133.03 168.3C118.83 175.019 104.59 181.63 90.24 188.02C86.63 189.638 82.92 190.966 79.24 192.234C75.56 193.502 71.74 194.64 68 195.719C60.46 197.945 52.86 199.972 45.25 201.899C37.64 203.826 30 205.704 22.32 207.531C14.9 209.288 7.47 211.026 0 212.693V210.696C7.33333 209.245 14.6667 207.731 22 206.153C29.66 204.456 37.3067 202.685 44.94 200.841C52.55 198.944 60.14 196.957 67.67 194.77C75.2212 192.707 82.6246 190.138 89.83 187.081C104.14 180.631 118.4 174.101 132.49 167.111C146.05 160.511 159.49 153.681 172.65 146.312C170.299 145.303 167.759 144.806 165.2 144.855C164.72 144.855 164.2 144.855 163.75 144.855C160.009 145.154 156.317 145.895 152.75 147.061C145.54 149.483 138.49 152.355 131.64 155.658C117.8 162.099 104.02 168.919 89.52 174.171C85.9 175.489 82.24 176.707 78.52 177.785C74.8 178.864 71.09 179.782 67.38 180.781C59.92 182.631 52.4267 184.296 44.9 185.773C37.3733 187.251 29.8067 188.569 22.2 189.728C14.83 190.786 7.49 191.725 0 192.234V188.689C7.22 188.22 14.52 187.391 21.74 186.412C29.2933 185.361 36.82 184.136 44.32 182.738C51.82 181.34 59.2733 179.736 66.68 177.925C70.37 176.927 74.11 176.108 77.75 175.069C81.39 174.031 85.01 172.863 88.59 171.605C102.95 166.542 116.71 159.872 130.66 153.532C137.624 150.238 144.792 147.393 152.12 145.014C155.855 143.822 159.719 143.078 163.63 142.798C167.681 142.463 171.736 143.387 175.24 145.444V145.444C175.463 145.579 175.624 145.795 175.689 146.047C175.755 146.298 175.719 146.566 175.59 146.792V146.792Z" fill="black"/>
<path d="M12.0344 174.374C12.0344 174.374 11.2073 171.603 17.6649 168.112C24.1225 164.621 36.2306 157.109 50.1424 139.835C64.0543 122.561 74.3885 123.921 77.8066 126.052C80.5372 127.752 88.9082 144.176 59.2509 158.48C29.5936 172.783 12.3533 178.665 12.0344 174.374Z" fill="#FFF79C"/>
<path d="M218.481 118.614C218.481 118.614 216.821 115.129 221.141 108.629C225.461 102.128 228.291 96.6465 232.451 99.1627C236.611 101.679 229.951 111.784 226.451 114.61C222.951 117.435 220.001 121.27 218.481 118.614Z" fill="#FFF79C"/>
<path d="M218.117 138.142V143.204C218.117 143.204 236.108 133.981 236.898 127.57L218.117 138.142Z" fill="#FFEB77"/>
<path d="M115.341 227.281C115.341 227.281 125.561 226.283 121.751 233.442C117.991 240.305 111.67 245.408 104.161 247.641H96.4414C96.4414 247.641 119.251 231.944 115.341 227.281Z" fill="#FFEB77"/>
<path d="M190.095 188.989C192.085 191.694 194.378 194.163 196.93 196.348C199.338 198.557 202.248 200.149 205.409 200.988C206.901 201.313 208.45 201.265 209.919 200.848C211.386 200.395 212.728 199.608 213.837 198.548C216.112 196.281 217.664 193.394 218.297 190.249C219.015 187.001 219.279 183.67 219.079 180.35C218.907 176.987 218.464 173.644 217.756 170.351C216.286 163.703 214.172 157.213 211.442 150.974C205.897 138.453 198.89 126.629 190.566 115.748C182.295 104.807 173.101 94.5906 163.086 85.2111C142.975 66.4647 120.504 50.4084 96.2405 37.4465C71.9951 24.4648 46.5097 13.9337 20.1644 6.01013C19.3843 5.76616 18.7333 5.22299 18.3546 4.50012C17.9759 3.77725 17.9005 2.93389 18.145 2.15557C18.3896 1.37725 18.934 0.727723 19.6585 0.34988C20.3831 -0.0279622 21.2284 -0.10317 22.0085 0.140801V0.140801C48.613 8.48918 74.3136 19.4726 98.726 32.9271C123.059 46.4655 145.949 62.7736 166.013 82.1314C176.072 91.7895 185.295 102.279 193.583 113.488C201.931 124.692 208.927 136.838 214.429 149.674C217.167 156.12 219.268 162.818 220.702 169.671C221.4 173.132 221.822 176.643 221.965 180.17C222.126 183.759 221.788 187.352 220.963 190.849C220.162 194.506 218.297 197.845 215.601 200.448C214.172 201.764 212.457 202.733 210.59 203.278C208.709 203.791 206.729 203.832 204.828 203.398C201.268 202.448 197.995 200.642 195.297 198.138C192.62 195.79 190.223 193.143 188.151 190.249C188.063 190.128 188 189.99 187.965 189.844C187.93 189.698 187.924 189.547 187.948 189.399C187.972 189.251 188.024 189.109 188.103 188.981C188.182 188.853 188.285 188.742 188.407 188.654C188.529 188.566 188.666 188.503 188.813 188.468C188.959 188.434 189.111 188.428 189.259 188.451C189.407 188.475 189.55 188.528 189.678 188.606C189.806 188.685 189.917 188.788 190.005 188.909L190.095 188.989Z" fill="#FFDC4B"/>
<path fill-rule="evenodd" clip-rule="evenodd" d="M110.144 172.37C111.184 173.277 111.291 174.854 110.383 175.892C100.684 186.984 94.0554 199.406 89.5335 211.007C85.1514 222.249 82.7639 232.679 81.4734 240.297C80.8285 244.103 80.4588 247.2 80.2507 249.337C80.1466 250.405 80.083 251.232 80.0457 251.787C80.027 252.065 80.0149 252.274 80.0075 252.412C80.0038 252.481 80.0014 252.531 79.9998 252.563L79.9983 252.598L79.998 252.604C79.942 253.981 78.7788 255.053 77.3994 254.998C76.0198 254.942 74.9465 253.781 75.0021 252.403L77.5 252.504C75.0021 252.403 75.0021 252.403 75.0021 252.402L75.0024 252.396L75.003 252.381L75.0053 252.33C75.0073 252.287 75.0103 252.226 75.0146 252.146C75.0232 251.986 75.0367 251.753 75.0569 251.452C75.0975 250.85 75.1651 249.973 75.2742 248.853C75.4924 246.613 75.8768 243.399 76.5434 239.464C77.8757 231.599 80.3401 220.828 84.874 209.196C89.5513 197.196 96.4486 184.237 106.617 172.609C107.525 171.57 109.104 171.463 110.144 172.37Z" fill="#FFDC4B"/>
<path d="M128.566 159.133C128.566 159.133 144.423 160.63 158.273 152.279C172.123 143.927 175.626 144.088 177.964 147.434C180.303 150.781 172.123 159.635 159.778 169.655C159.778 169.655 170.959 180.71 151.097 185.735C145.099 186.048 139.085 185.615 133.192 184.449C123.598 182.529 102.08 184.78 93.6394 188.208C85.1989 191.635 81.7063 189.795 81.0439 189.122C80.3815 188.449 78.5348 183.092 86.2126 177.765C93.8903 172.439 128.566 159.133 128.566 159.133Z" fill="black"/>
<path d="M185.76 140.611C185.76 140.611 183.76 139.662 184.58 134.939C185.4 130.216 189.92 127.95 191.79 129.947C193.66 131.944 192.93 136.247 189.2 139.363C188.242 140.18 187.02 140.623 185.76 140.611Z" fill="black"/>
</svg>
