<svg width="250" height="230" viewBox="0 0 250 230" fill="none" xmlns="http://www.w3.org/2000/svg">
<path d="M120.872 0.204374C124.115 2.85882 127.123 5.78714 129.862 8.95686C132.601 12.0913 135.15 15.3869 137.494 18.8258C142.171 25.7242 146.08 33.1115 149.15 40.8566C150.692 44.7204 152.026 48.6636 153.146 52.6695C153.755 54.6632 154.145 56.6569 154.714 58.7105C155.284 60.764 155.623 62.7677 155.943 64.8213C157.397 73.0222 158.125 81.3349 158.12 89.6632C158.087 90.1095 157.885 90.5267 157.557 90.8311C157.228 91.1355 156.796 91.3047 156.347 91.3047C155.899 91.3047 155.467 91.1355 155.138 90.8311C154.809 90.5267 154.608 90.1095 154.574 89.6632V89.6632C154.714 81.5168 154.133 73.3739 152.836 65.3297C152.557 63.3359 152.097 61.3422 151.728 59.3485C151.358 57.3547 150.859 55.361 150.289 53.437C149.254 49.5127 148.01 45.6461 146.563 41.8535C143.679 34.2442 139.968 26.9735 135.496 20.1716C133.257 16.7746 130.816 13.5156 128.184 10.4123C125.594 7.30473 122.74 4.42637 119.653 1.80933V1.80933C119.548 1.72947 119.459 1.62964 119.392 1.51554C119.325 1.40143 119.281 1.27529 119.263 1.14431C119.227 0.879773 119.297 0.611593 119.459 0.398763C119.62 0.185933 119.86 0.0458857 120.125 0.00943069C120.39 -0.0270243 120.659 0.0430989 120.872 0.204374V0.204374Z" fill="#FFDC4B"/>
<path d="M250 62.3594V115.305C250 115.305 114.786 127.446 10 189V136.045C10 136.045 73.3836 78.1335 120.954 55.9602C168.524 33.7868 200.731 21.5358 209.707 36.7625C212.706 41.7386 210.816 46.4857 207.038 50.5761C199.271 58.9756 183.298 64.718 183.298 64.718C183.298 64.718 160.067 74.3616 162.117 79.7656C162.128 79.8153 162.148 79.8625 162.177 79.9049L162.277 80.094C165.625 85.4085 189.275 67.6539 250 62.3594Z" fill="#FFF79C"/>
<path d="M62.9376 162.873C61.9387 163.292 60.9399 163.721 59.941 164.169C52.0182 156.952 45.1249 148.684 39.4539 139.596C35.405 133.261 31.9413 126.571 29.1055 119.609L31.5328 117.615C34.3489 124.727 37.841 131.554 41.9611 138.001C47.714 147.259 54.7794 155.636 62.9376 162.873V162.873Z" fill="#FFF79C"/>
<path d="M98.8993 149.136C97.9004 149.485 96.8016 149.854 95.7528 150.223C86.6169 141.034 78.789 130.635 72.4888 119.32C67.9086 111.26 64.0962 102.79 61.1016 94.0195L63.6187 92.1255C66.6022 101.049 70.4459 109.662 75.0959 117.845C81.4925 129.356 89.5084 139.894 98.8993 149.136V149.136Z" fill="#FFF79C"/>
<path d="M249.991 134.781C249.991 134.781 177.143 139.417 134.95 181.854C134.95 181.854 124.322 195.112 134.95 195.81C143.101 196.318 171.479 177.736 211.015 170.081C215.35 155.058 236.906 164.707 249.971 166.96L249.991 134.781Z" fill="#E5EFF7"/>
<path d="M82.139 229.753C82.139 229.753 78.4831 224.769 85.1357 218.319C91.7882 211.869 103.735 204.722 107.231 207.543C110.727 210.364 97.9014 232.574 82.139 229.753Z" fill="#FFF79C"/>
<path d="M146.125 167.967C142.637 169.887 138.71 170.87 134.727 170.818C127.735 170.818 119.744 168.147 111.443 162.843C110.824 162.464 110.215 162.066 109.596 161.647L108.776 161.089C104.118 157.84 99.7524 154.191 95.7311 150.183C86.5951 140.994 78.7673 130.596 72.4671 119.28C67.8869 111.221 64.0744 102.75 61.0798 93.9797C58.3769 86.1531 56.5675 78.0471 55.6859 69.8156C55.566 68.6692 55.4761 67.5328 55.4162 66.4163C55.4162 66.1571 55.4162 65.8979 55.4162 65.6388C54.5671 48.8316 59.3817 36.6 68.931 31.2369C82.9154 23.3916 104.531 32.3135 124.089 53.9754C124.191 54.0866 124.272 54.2148 124.329 54.3542L121.552 55.6402C103.063 35.3041 83.0153 26.7311 70.3994 33.8387C61.1098 39.0623 57.2142 51.7325 58.4827 67.7322C58.5626 68.9085 58.6825 70.0948 58.8323 71.301C59.7456 78.3681 61.3481 85.3293 63.617 92.0856C66.6005 101.009 70.4442 109.622 75.0942 117.805C81.4876 129.33 89.5036 139.881 98.8975 149.136C102.146 152.299 105.622 155.22 109.296 157.879C110.225 158.547 111.144 159.185 112.063 159.773C124.239 167.748 136.036 170.23 144.676 165.355C153.317 160.481 157.662 148.409 156.603 132.17L159.53 131.452C159.535 131.535 159.535 131.618 159.53 131.701C160.828 149.515 156.044 162.385 146.125 167.967Z" fill="#FFDC4B"/>
<path d="M112.04 159.773C111.88 160.849 111.68 161.886 111.441 162.883C109.932 169.123 106.856 173.898 102.371 176.719C99.2025 178.675 95.5371 179.678 91.8125 179.61C85.8192 179.61 79.0168 177.407 71.7649 173.041C67.5258 170.463 63.5393 167.493 59.8583 164.169C51.9355 156.951 45.0422 148.683 39.3712 139.596C35.3499 133.257 31.9129 126.568 29.1027 119.609C26.0167 112.063 23.9996 104.125 23.1094 96.0231C21.701 82.077 25.207 71.7594 32.9684 66.8648C38.9616 63.0867 46.8328 63.0667 55.4632 66.4561C56.4621 66.8448 57.4609 67.2835 58.5098 67.7719C65.6803 71.3666 72.2317 76.0776 77.9181 81.7281C77.079 82.3062 76.2499 82.8944 75.4209 83.4825C70.4758 78.6749 64.8811 74.5813 58.7994 71.3208C57.7406 70.7725 56.7018 70.3239 55.6729 69.8354C47.4022 66.2766 39.9206 65.9676 34.5166 69.3769C27.8141 73.6136 24.8075 82.9642 26.0561 95.6842C26.877 103.208 28.7185 110.586 31.53 117.615C34.3461 124.727 37.8382 131.554 41.9583 138.001C47.7072 147.276 54.7729 155.671 62.9348 162.923C72.9936 171.685 83.302 176.7 91.7526 176.7C94.945 176.761 98.0884 175.91 100.812 174.247C104.878 171.685 107.585 167.169 108.804 161.178C109.013 160.181 109.183 159.055 109.303 157.929C109.691 153.888 109.598 149.815 109.023 145.797C110.022 145.478 110.961 145.159 111.93 144.86C112.673 149.8 112.71 154.822 112.04 159.773V159.773Z" fill="#FFDC4B"/>
<path d="M158.12 136.097C158.12 136.097 165.192 143.753 172.165 140.773C178.418 138.101 184.71 131.651 188.446 135.788C192.182 139.925 177.459 151.918 171.675 161.149C166.781 168.914 157.221 184.076 132.898 186.449L158.12 136.097Z" fill="black"/>
<path d="M173.082 132.977C173.082 132.977 172.833 128.84 176.149 127.345C179.465 125.849 181.143 128.342 179.805 130.166C178.466 131.99 173.292 136.008 173.082 132.977Z" fill="black"/>
<path d="M194.669 129C194.669 129 192.601 124.274 202.31 115.582C212.019 106.889 219.881 104.327 222.238 108.783C223.956 112.013 219.701 115.761 213.158 118.144C210.002 119.29 207.435 120.795 203.609 124.035C199.783 127.275 197.666 132.818 194.669 129Z" fill="black"/>
<path d="M249.949 134.343L246.832 134.542L241.588 135.051L238.961 135.31L236.354 135.649L231.13 136.346C229.392 136.626 227.664 136.955 225.936 137.254C222.46 137.812 219.033 138.619 215.587 139.327C208.73 140.897 201.967 142.851 195.33 145.179C188.671 147.459 182.224 150.314 176.062 153.712C175.998 153.749 175.951 153.808 175.927 153.877C175.903 153.947 175.905 154.022 175.932 154.091C175.948 154.127 175.971 154.159 176 154.187C176.029 154.214 176.063 154.235 176.1 154.249C176.137 154.263 176.177 154.269 176.217 154.268C176.256 154.266 176.295 154.257 176.331 154.24V154.24C179.488 152.795 182.734 151.499 186.01 150.303C187.635 149.685 189.277 149.1 190.935 148.548C192.573 147.96 194.241 147.442 195.929 146.933C202.582 144.83 209.314 143.055 216.097 141.43C222.879 139.806 229.751 138.55 236.614 137.553L239.201 137.134L241.798 136.795L246.982 136.117L249.979 135.758L249.949 134.343Z" fill="black"/>
<path fill-rule="evenodd" clip-rule="evenodd" d="M192.583 174.576C192.748 175.132 192.431 175.717 191.875 175.882C177.292 180.214 164.871 185.53 155.223 189.726C154.766 189.925 154.315 190.121 153.869 190.315C149.629 192.162 145.94 193.768 142.894 194.921C141.208 195.559 139.696 196.068 138.376 196.405C137.069 196.738 135.887 196.92 134.884 196.858L134.881 196.857C132.002 196.668 130.18 195.582 129.481 193.7C128.841 191.977 129.303 189.937 129.986 188.188C130.689 186.388 131.731 184.638 132.579 183.356C133.007 182.711 133.391 182.175 133.67 181.799C133.81 181.611 133.923 181.463 134.002 181.36C134.042 181.309 134.073 181.269 134.094 181.242L134.12 181.21L134.127 181.201L134.13 181.197C134.13 181.197 134.13 181.197 134.949 181.854L134.13 181.197C134.492 180.745 135.154 180.672 135.606 181.034C136.058 181.397 136.131 182.058 135.769 182.51C135.769 182.51 135.769 182.51 135.769 182.51L135.764 182.517L135.744 182.541C135.726 182.564 135.699 182.599 135.663 182.645C135.592 182.737 135.487 182.874 135.357 183.05C135.096 183.402 134.733 183.907 134.33 184.516C133.518 185.742 132.567 187.35 131.942 188.952C131.297 190.604 131.094 192.01 131.45 192.969C131.747 193.769 132.582 194.602 135.016 194.762C135.699 194.804 136.635 194.682 137.857 194.37C139.069 194.061 140.499 193.582 142.15 192.957C145.145 191.823 148.785 190.239 153.041 188.385C153.483 188.193 153.931 187.998 154.386 187.8C164.042 183.6 176.563 178.24 191.277 173.869C191.833 173.704 192.417 174.021 192.583 174.576Z" fill="black"/>
<path d="M212.209 166.123C212.209 166.123 207.804 171.556 217.033 178.205C226.263 184.854 212.598 190.715 200.212 181.455C187.826 172.194 180.235 167.817 177.168 168.645" fill="#E5EFF7"/>
<path d="M249.946 166.621V167.818C246.84 166.821 243.663 165.973 240.477 165.246C237.266 164.491 234.019 163.899 230.748 163.471C227.529 163.018 224.272 162.901 221.029 163.122C219.465 163.24 217.925 163.576 216.454 164.119C215.08 164.605 213.892 165.508 213.058 166.701L212.998 166.791C212.678 167.261 212.454 167.79 212.338 168.346C212.2 168.93 212.166 169.534 212.238 170.13C212.416 171.389 212.922 172.579 213.707 173.579C213.885 173.86 214.092 174.121 214.326 174.357C214.546 174.606 214.756 174.865 214.995 175.105C215.481 175.585 215.991 176.041 216.524 176.47C217.78 177.328 218.931 178.332 219.95 179.461C220.529 180.165 220.918 181.006 221.079 181.903C221.153 182.404 221.127 182.914 221 183.404C220.873 183.894 220.648 184.353 220.339 184.754C219.777 185.458 219.05 186.012 218.222 186.369C217.482 186.713 216.699 186.955 215.894 187.087C212.835 187.535 209.712 187.192 206.825 186.09C204.006 185.062 201.377 183.576 199.043 181.694C196.766 179.926 194.462 178.198 192.131 176.51C189.794 174.855 187.456 173.171 185.009 171.685C183.77 170.958 182.532 170.24 181.243 169.692C179.999 169.025 178.598 168.708 177.188 168.775C177.171 168.777 177.154 168.777 177.138 168.773C177.122 168.768 177.107 168.761 177.093 168.751C177.08 168.74 177.069 168.727 177.062 168.713C177.054 168.698 177.049 168.682 177.048 168.665C177.044 168.635 177.051 168.604 177.067 168.579C177.084 168.553 177.109 168.534 177.138 168.525C178.619 168.279 180.139 168.47 181.513 169.074C182.883 169.582 184.218 170.181 185.508 170.868C188.079 172.231 190.579 173.721 193 175.334C195.417 176.929 197.805 178.584 200.152 180.268C202.364 181.99 204.844 183.337 207.494 184.256C210.054 185.162 212.798 185.425 215.485 185.023C216.665 184.877 217.76 184.336 218.591 183.488C218.727 183.321 218.825 183.127 218.88 182.919C218.936 182.711 218.946 182.494 218.911 182.282C218.805 181.755 218.572 181.263 218.232 180.847C217.309 179.845 216.277 178.949 215.155 178.175C214.567 177.692 214.003 177.18 213.467 176.64C213.197 176.371 212.948 176.062 212.688 175.773C212.424 175.486 212.184 175.18 211.969 174.855C210.985 173.557 210.358 172.024 210.151 170.409C210.051 169.57 210.102 168.719 210.301 167.897C210.495 167.043 210.866 166.238 211.389 165.535C212.471 164.038 213.988 162.91 215.735 162.305C217.385 161.711 219.109 161.349 220.859 161.228C224.248 161.03 227.649 161.214 230.997 161.777C234.305 162.296 237.582 162.988 240.817 163.85C243.913 164.628 246.94 165.555 249.946 166.621Z" fill="black"/>
<path d="M207.056 50.5532C199.294 58.9668 183.332 64.7187 183.332 64.7187C183.332 64.7187 160.178 74.3684 162.226 79.7813C161.676 78.5652 159.609 73.9198 163.145 70.5603C168.788 65.1573 184.551 62.9243 207.056 50.5532Z" fill="#FFEB77"/>
<path d="M98.2466 178.601C94.366 180.441 90.333 181.932 86.1945 183.056C82.1056 184.194 77.9508 185.072 73.7542 185.687C61.1697 187.491 48.3705 187.051 35.9358 184.387C33.8558 183.994 31.8255 183.379 29.7654 182.915L26.73 182.018C25.7348 181.726 24.7395 181.424 23.7443 181.071C15.697 178.394 7.92456 174.934 0.535745 170.74C0.295552 170.606 0.117622 170.381 0.0411 170.115C-0.0354225 169.848 -0.00426979 169.562 0.127705 169.319C0.259679 169.075 0.481665 168.895 0.744828 168.818C1.00799 168.74 1.29077 168.772 1.53097 168.905C8.79729 172.96 16.4328 176.294 24.3315 178.864C25.3267 179.206 26.3219 179.488 27.3172 179.771L30.3028 180.617C32.2933 181.081 34.2837 181.625 36.3637 182.008C40.4165 182.841 44.5138 183.433 48.6348 183.782C56.8749 184.499 65.1697 184.225 73.3462 182.966C77.4207 182.328 81.4524 181.436 85.4182 180.295C89.3536 179.19 93.1864 177.74 96.8732 175.961H96.9429C97.2895 175.809 97.6803 175.798 98.0348 175.93C98.3892 176.062 98.6802 176.326 98.8475 176.669C99.0148 177.012 99.0458 177.407 98.9339 177.772C98.8221 178.137 98.5761 178.445 98.2466 178.632V178.601Z" fill="#FFDC4B"/>
</svg>
