<svg width="248" height="240" viewBox="0 0 248 240" fill="none" xmlns="http://www.w3.org/2000/svg">
<path fill-rule="evenodd" clip-rule="evenodd" d="M15.4863 97.8976C15.6146 97.5038 16.0381 97.2885 16.4322 97.4167C40.7805 105.34 66.8408 106.413 91.7589 100.52C92.1622 100.425 92.5665 100.674 92.662 101.077C92.7574 101.48 92.5078 101.884 92.1045 101.98C66.9183 107.936 40.5777 106.851 15.9675 98.843C15.5734 98.7148 15.358 98.2915 15.4863 97.8976Z" fill="#FFDC4B"/>
<path d="M0 54.5841C0 54.5841 24.7618 58.5792 58.8766 84.0485C100.386 115.081 88.9545 133.679 134.321 145.874C139.078 147.152 143.155 138.623 143.884 124.689C145.503 93.7767 130.634 36.2562 70.1184 0H0V54.5841Z" fill="#FFF79C"/>
<path d="M240 127.769V223C203.609 186.723 214.287 152.744 210.621 128.289C208.788 116.077 197.599 99.5669 197.599 99.5669C197.599 99.5669 192.4 91.1922 189.415 87.6444C186.43 84.0966 183.685 79.9492 185.679 79.1697C187.672 78.3901 202.587 79.5194 219.225 99.6669C231.345 114.358 234.701 122.892 240 127.769Z" fill="#FFF79C"/>
<path d="M0 83C0 83 42.0874 99.4092 33.9574 126.927C33.9574 126.927 29.7834 133.888 16.597 131.502C3.41062 129.115 0 127.752 0 127.752V83Z" fill="#E5EFF7"/>
<path d="M193.185 64.37C193.185 64.37 197.027 67.1999 197.698 66.2099C198.368 65.2199 195.697 61.7099 187.012 56.74C178.327 51.77 154.794 41.7399 149.651 46.3699C144.508 50.9999 170.283 57.5099 170.283 57.5099C170.283 57.5099 186.101 60.32 193.185 64.37Z" fill="#FFF79C"/>
<path d="M140.917 75C146.963 66.5304 152.281 57.5652 156.816 48.2C157.386 47.05 157.976 45.83 158.477 44.72C158.954 43.5586 159.361 42.3698 159.697 41.16C160.392 38.7521 160.775 36.2652 160.838 33.76C160.921 31.3486 160.438 28.9513 159.427 26.76C158.911 25.7128 158.236 24.7515 157.426 23.91C156.586 23.0929 155.645 22.3872 154.625 21.81C152.42 20.8542 150.019 20.436 147.621 20.59C145.088 20.6611 142.567 20.9556 140.087 21.47C135.057 22.5216 130.137 24.0381 125.388 26C115.818 29.9511 106.766 35.0555 98.4335 41.2C81.6189 53.3888 67.9538 69.4083 58.5715 87.93C53.9604 97.1527 50.5315 106.92 48.3658 117C47.2789 122.052 46.4971 127.164 46.0245 132.31C45.7944 134.87 45.5943 137.48 45.5343 140C45.4805 142.53 45.5774 145.061 45.8244 147.58C46.2856 152.565 47.5739 157.438 49.6365 162C51.6781 166.486 54.7087 170.451 58.5014 173.6C62.3446 176.691 66.8132 178.912 71.5987 180.11C76.4723 181.306 81.4961 181.774 86.5069 181.5C96.6225 181 106.648 178.28 116.243 174.62C125.869 170.845 135.177 166.307 144.079 161.05C153.084 155.82 161.678 150.05 170.093 143.96C178.508 137.87 186.952 131.64 195.237 125.28C203.522 118.92 211.696 112.42 219.741 105.78C227.785 99.14 235.749 92.35 243.254 85.25C243.52 84.9953 243.833 84.7954 244.177 84.6618C244.52 84.5282 244.886 84.4635 245.255 84.4714C245.623 84.4792 245.986 84.5596 246.324 84.7078C246.661 84.856 246.966 85.0691 247.221 85.335C247.476 85.601 247.676 85.9145 247.809 86.2576C247.943 86.6008 248.008 86.967 248 87.3351C247.992 87.7033 247.912 88.0663 247.763 88.4035C247.615 88.7406 247.402 89.0453 247.136 89.3V89.3C239.411 96.55 231.397 103.3 223.283 110.04C215.168 116.78 206.914 123.21 198.579 129.59C190.244 135.97 181.79 142.22 173.245 148.32C164.7 154.42 155.815 160.23 146.64 165.49C137.466 170.826 127.876 175.414 117.964 179.21C107.959 182.92 97.533 185.71 86.687 186.16C81.2155 186.418 75.7359 185.862 70.428 184.51C65.0296 183.102 60.0012 180.54 55.6899 177C51.4166 173.404 48.0131 168.888 45.7344 163.79C43.5041 158.791 42.1276 153.454 41.6621 148C41.4089 145.305 41.3254 142.596 41.412 139.89C41.502 137.18 41.7122 134.57 41.9723 131.89C42.5085 126.601 43.3571 121.349 44.5137 116.16C46.8238 105.782 50.4343 95.7356 55.2596 86.26C65.0337 67.3193 79.1818 50.9782 96.5325 38.59C105.118 32.351 114.436 27.186 124.278 23.21C129.22 21.2068 134.338 19.6701 139.566 18.62C142.204 18.0954 144.882 17.8042 147.571 17.75C148.96 17.7297 150.349 17.8234 151.723 18.03C153.177 18.2436 154.586 18.6928 155.895 19.36C157.173 20.0789 158.348 20.9669 159.387 22C160.391 23.0513 161.225 24.2524 161.859 25.56C163.036 28.1459 163.591 30.9713 163.479 33.81C163.402 36.5421 162.964 39.2521 162.179 41.87C161.803 43.1816 161.352 44.4705 160.828 45.73C160.248 47 159.677 48.13 159.087 49.32C154.41 58.7632 148.944 67.7952 142.748 76.32C142.56 76.5265 142.302 76.6568 142.024 76.686C141.746 76.7152 141.467 76.6414 141.24 76.4785C141.013 76.3157 140.853 76.0751 140.792 75.8026C140.731 75.53 140.772 75.2444 140.907 75H140.917Z" fill="#FFDC4B"/>
<path d="M240 232.57V240H161.375C161.375 240 131.302 220.33 145.285 206.68L145.405 206.56C145.594 206.37 145.804 206.19 146.014 206C145.79 205.823 145.577 205.632 145.375 205.43L145.275 205.34C141.579 201.72 125.938 182.42 142.278 127.34C144.486 110.34 141.14 93.7701 136.755 80.6401C135.067 75.6401 133.229 71.0401 131.491 67.1801C129.41 62.4516 127.022 57.865 124.34 53.4501L115.061 39.1501L114.852 38.8201L115.91 39.3601L139.711 51.6201C143.167 54.5101 162.184 66.6201 170.454 90.2001C180.442 118.54 180.093 123.5 188.143 153.66C197.162 187.38 202.665 222.34 240 232.57Z" fill="#E5EFF7"/>
<path d="M240 231.611V233.768C236.683 232.909 233.441 231.787 230.306 230.412C225.397 228.275 220.838 225.42 216.78 221.943C212.738 218.444 209.199 214.412 206.26 209.958C203.358 205.514 200.89 200.805 198.889 195.896C194.866 186.138 192.121 175.921 189.456 165.883C186.791 155.846 183.905 145.779 181.773 135.502C180.657 130.378 179.762 125.245 178.515 120.261C177.268 115.277 175.709 110.273 174.05 105.4C172.475 100.47 170.625 95.6324 168.508 90.9078C166.306 86.2605 163.761 81.7807 160.896 77.5047C158.018 73.2395 154.849 69.1751 151.412 65.34C148.017 61.4744 144.3 57.8996 140.3 54.6535C136.148 51.5868 131.756 48.8549 127.166 46.4838L120.237 42.7085L115.269 40.0918L127.277 58.2589C131.45 65.149 134.824 72.4866 137.333 80.1314C139.874 87.763 141.593 95.6404 142.462 103.632C142.902 107.612 143.127 111.613 143.136 115.617C143.136 119.612 142.905 123.607 142.502 127.602C142.508 127.645 142.508 127.688 142.502 127.731V127.731C140.582 134.263 138.912 140.875 137.655 147.556C136.346 154.22 135.569 160.976 135.332 167.761C135.204 171.141 135.278 174.526 135.553 177.898C135.808 181.262 136.323 184.6 137.092 187.886C137.847 191.15 138.953 194.324 140.39 197.354C141.113 198.848 141.947 200.287 142.884 201.658C143.353 202.333 143.857 202.983 144.393 203.606C144.901 204.205 145.459 204.76 146.062 205.264C146.184 205.359 146.281 205.48 146.347 205.619C146.414 205.758 146.447 205.909 146.444 206.063C146.447 206.3 146.365 206.53 146.213 206.712L146.113 206.822C144.823 207.896 143.76 209.213 142.985 210.697C142.238 212.164 141.891 213.799 141.979 215.441C142.16 218.767 143.82 221.963 145.841 224.789C147.947 227.639 150.351 230.261 153.011 232.609C155.662 234.989 158.475 237.184 161.429 239.181V239.181C161.564 239.272 161.675 239.394 161.752 239.536C161.829 239.679 161.87 239.838 161.871 240H159.085C156.485 238.171 153.997 236.19 151.634 234.067C148.862 231.625 146.361 228.897 144.172 225.928C142.04 222.931 140.149 219.466 139.938 215.521C139.821 213.543 140.23 211.569 141.125 209.798C141.835 208.406 142.777 207.143 143.91 206.063C143.518 205.673 143.166 205.284 142.814 204.874C142.234 204.2 141.693 203.493 141.195 202.757C140.197 201.3 139.316 199.767 138.56 198.173C137.072 195.011 135.933 191.7 135.161 188.295C134.39 184.972 133.869 181.597 133.602 178.198C133.341 174.755 133.281 171.3 133.421 167.851C133.701 160.977 134.518 154.135 135.865 147.387C137.162 140.665 138.882 134.033 140.833 127.492C141.235 123.567 141.477 119.642 141.507 115.697C141.534 103.92 139.702 92.2127 136.076 81.0003L135.956 80.6108C134.502 76.1577 132.772 71.7982 130.776 67.5572C129.393 64.6163 127.856 61.7493 126.171 58.9681L113.097 38.8933C113.054 38.8301 113.025 38.759 113.01 38.6842C112.996 38.6094 112.997 38.5325 113.013 38.458C113.028 38.3834 113.059 38.3129 113.103 38.2504C113.147 38.188 113.203 38.1349 113.268 38.0944C113.348 38.0427 113.439 38.0112 113.533 38.0025C113.628 37.9938 113.723 38.0082 113.811 38.0444V38.0444C116.245 39.0432 118.638 40.1218 121.032 41.2004C123.425 42.2791 125.819 43.3877 128.172 44.5662C130.525 45.7447 132.868 46.9232 135.211 48.2016C137.586 49.4457 139.853 50.8821 141.989 52.4962C146.193 55.7483 150.084 59.3792 153.615 63.3425C160.729 71.2214 166.657 80.0824 171.214 89.6494L172.823 93.2948C173.346 94.5033 173.828 95.7617 174.271 96.9902C175.206 99.467 176.031 101.924 176.875 104.411C178.555 109.405 180.134 114.398 181.421 119.502C182.708 124.605 183.603 129.779 184.709 134.842C185.816 139.906 187.022 144.96 188.31 149.993L192.232 165.134C194.836 175.212 197.461 185.289 201.373 194.837C203.294 199.602 205.65 204.182 208.413 208.52C211.158 212.83 214.492 216.742 218.318 220.145C224.581 225.544 231.994 229.464 240 231.611V231.611Z" fill="black"/>
<path d="M149.012 79.1101C149.012 79.1101 151.363 115.86 160.128 129.17C171.474 146.4 170.604 157.38 164.621 159.37C158.637 161.36 149.142 153.37 149.142 153.37C149.142 153.37 137.976 92.4701 149.012 79.1101Z" fill="black"/>
<path d="M177.421 176.906C179.972 176.143 181.216 172.771 180.199 169.374C179.182 165.977 176.289 163.842 173.737 164.605C171.186 165.368 169.942 168.741 170.959 172.138C171.976 175.534 174.869 177.669 177.421 176.906Z" fill="black"/>
<path d="M27.2757 27.9999C29.7126 27.9999 31.6882 26.0255 31.6882 23.5899C31.6882 21.1544 29.7126 19.1799 27.2757 19.1799C24.8388 19.1799 22.8633 21.1544 22.8633 23.5899C22.8633 26.0255 24.8388 27.9999 27.2757 27.9999Z" fill="#FFEB77"/>
<path d="M60.5539 29.8L65.7168 34.4001L72.4405 32.76L69.6589 39.09L73.3009 44.9701L66.4171 44.28L61.9447 49.5601L60.4739 42.8L54.0703 40.18L60.0436 36.7001L60.5539 29.8Z" fill="#FFEB77"/>
<path d="M129.153 201.033C130.764 198.245 128.99 194.207 125.19 192.014C121.39 189.822 117.004 190.305 115.393 193.093C113.782 195.882 115.557 199.92 119.357 202.112C123.156 204.305 127.542 203.822 129.153 201.033Z" fill="#FFF79C"/>
<path d="M0.287948 82.0596C0.19713 82.02 0.0990739 81.9997 0 82V84.1937C4.52773 86.0796 40.1141 101.812 32.9651 126.429C32.4289 127.213 28.2388 132.533 16.7208 130.399C3.88233 128.067 0.317736 126.747 0.287948 126.737C0.196879 126.698 0.0989883 126.678 0 126.677V128.841C1.31066 129.258 5.61995 130.499 16.3435 132.464C18.1535 132.811 19.9915 132.99 21.8344 133C31.3367 133 34.6531 127.67 34.8119 127.402C34.8601 127.328 34.8969 127.248 34.9211 127.163C43.2418 99.1125 0.714905 82.2283 0.287948 82.0596Z" fill="black"/>
</svg>
